<?xml version="1.0" encoding="iso-8859-1"?>
<!-- Generator: Adobe Illustrator 25.2.1, SVG Export Plug-In . SVG Version: 6.00 Build 0)  -->
<svg fill="#22C3E6" version="1.1" id="Layer_1" xmlns="http://www.w3.org/2000/svg" xmlns:xlink="http://www.w3.org/1999/xlink" x="0px" y="0px"
	 viewBox="0 0 64 64" style="enable-background:new 0 0 64 64;" xml:space="preserve">
<path d="M32,23c-4.971,0-9,4.029-9,9s4.029,9,9,9s9-4.029,9-9S36.971,23,32,23z"/>
<path d="M42.415,7H21.581C13.542,7,7,13.544,7,21.585v20.833C7,50.458,13.544,57,21.585,57h20.833C50.458,57,57,50.456,57,42.415
	V21.581C57,13.542,50.456,7,42.415,7z M32,45c-7.17,0-13-5.831-13-13s5.83-13,13-13s13,5.83,13,13S39.169,45,32,45z M47,19
	c-1.104,0-2-0.896-2-2s0.896-2,2-2s2,0.896,2,2S48.104,19,47,19z"/>
</svg>